<svg width="18" height="17" viewBox="0 0 18 17" fill="none" xmlns="http://www.w3.org/2000/svg">
<path d="M15.3906 13.569C14.5414 14.5815 13.4601 15.3738 12.2388 15.8785C11.0174 16.3831 9.69221 16.5851 8.37597 16.4673C7.05973 16.3495 5.79145 15.9153 4.67914 15.2018C3.56682 14.4883 2.64342 13.5165 1.98755 12.3692C1.33168 11.222 0.962774 9.93321 0.912247 8.61268C0.861719 7.29214 1.13107 5.97895 1.69735 4.78492C2.26364 3.5909 3.11009 2.55141 4.16463 1.75497C5.21917 0.958527 6.45056 0.428725 7.75395 0.210674L8.36198 3.84516C7.64426 3.96523 6.96618 4.25697 6.38549 4.69554C5.80481 5.1341 5.3387 5.70651 5.02687 6.364C4.71504 7.0215 4.56673 7.74462 4.59455 8.47178C4.62237 9.19895 4.82551 9.90862 5.18667 10.5404C5.54783 11.1721 6.05631 11.7072 6.66881 12.1001C7.28132 12.493 7.9797 12.7321 8.7045 12.797C9.4293 12.8619 10.159 12.7506 10.8316 12.4727C11.5041 12.1949 12.0996 11.7586 12.5672 11.201L15.3906 13.569Z" fill="#2FA220"/>
<path d="M13.2051 1.19554C14.4636 1.92158 15.5067 2.96895 16.2275 4.23048C16.9484 5.49201 17.3211 6.92241 17.3076 8.3753L13.6228 8.34107C13.6302 7.54102 13.4249 6.75337 13.028 6.0587C12.6311 5.36403 12.0567 4.78728 11.3637 4.38749L13.2051 1.19554Z" fill="#C2F7BB"/>
<path d="M12.7148 8.29917C12.7148 10.292 11.0993 11.9075 9.10642 11.9075C7.11357 11.9075 5.49805 10.292 5.49805 8.29917C5.49805 6.30632 7.11357 4.6908 9.10642 4.6908C11.0993 4.6908 12.7148 6.30632 12.7148 8.29917ZM7.11945 8.29917C7.11945 9.39655 8.00905 10.2861 9.10642 10.2861C10.2038 10.2861 11.0934 9.39655 11.0934 8.29917C11.0934 7.20179 10.2038 6.31219 9.10642 6.31219C8.00905 6.31219 7.11945 7.20179 7.11945 8.29917Z" fill="#C2F7BB"/>
<circle cx="9.1071" cy="8.29912" r="1.14812" fill="#2FA220"/>
<circle cx="10.1744" cy="1.65643" r="1.55816" fill="#FAFFF9"/>
<circle cx="15.0933" cy="10.3493" r="1.55816" fill="#FAFFF9"/>
</svg>
